<svg id="Capa_1" enable-background="new 0 0 512 512" height="512" viewBox="0 0 512 512" width="512" xmlns="http://www.w3.org/2000/svg"><g><g><path d="m419.638 196.528v274.389c0 22.695-18.389 41.084-41.073 41.084h-337.487c-19.388 0-35.634-13.434-39.951-31.503l-.165-23.488-.958-139.879v-276.047c0-22.695 18.389-41.084 41.074-41.084h182.033c16.359 0 69.341 45.173 116.173 92.747 42.732 43.422 80.354 88.843 80.354 103.781z" fill="#ddeafb"/><path d="m419.638 196.528v100.515c0-.113-.01-.227-.01-.35-3.091-123.333-103.554-129.04-136.406-161.893l56.062-42.052c42.732 43.421 80.354 88.842 80.354 103.78z" fill="#cbe2ff"/><path d="m223.105 0h-100.515c.113 0 .227.01.35.01 123.333 3.091 129.04 103.554 161.893 136.406l42.052-56.062c-43.421-42.732-88.842-80.354-103.78-80.354z" fill="#cbe2ff"/><path d="m419.638 196.533v17.377c0-36.586-29.668-66.253-66.253-66.253h-40.324c-22.684 0-41.081-18.397-41.081-41.081v-40.323c0-36.586-29.668-66.253-66.253-66.253h17.377c31.29 0 61.308 12.433 83.433 34.557l78.543 78.543c22.125 22.125 34.558 52.143 34.558 83.433z" fill="#bed8fb"/></g><g fill="#475959"><path d="m177.235 240.032h-133.628c-4.268 0-7.726-3.459-7.726-7.726s3.459-7.726 7.726-7.726h133.629c4.268 0 7.726 3.459 7.726 7.726s-3.459 7.726-7.727 7.726z"/><path d="m161.608 281.126h-118.001c-4.268 0-7.726-3.459-7.726-7.726s3.459-7.726 7.726-7.726h118.001c4.268 0 7.726 3.459 7.726 7.726s-3.459 7.726-7.726 7.726z"/><path d="m158.971 322.23h-115.364c-4.268 0-7.726-3.459-7.726-7.726s3.459-7.726 7.726-7.726h115.364c4.268 0 7.726 3.459 7.726 7.726s-3.459 7.726-7.726 7.726z"/><path d="m168.427 363.324h-124.82c-4.268 0-7.726-3.459-7.726-7.726s3.459-7.726 7.726-7.726h124.821c4.268 0 7.726 3.459 7.726 7.726s-3.459 7.726-7.727 7.726z"/><path d="m146.8 126.039h-103.195c-4.268 0-7.726-3.459-7.726-7.726s3.459-7.726 7.726-7.726h103.195c4.268 0 7.726 3.459 7.726 7.726 0 4.266-3.459 7.726-7.726 7.726z"/></g><g><circle cx="234.952" cy="303.18" fill="#f1d333" r="143.524"/><path d="m317.81 362.119c-32.554 45.761-96.033 56.475-141.794 23.921-13.135-9.344-23.385-21.242-30.555-34.532-6.377-11.837-10.312-24.786-11.662-38.024-1.205-11.775-.371-23.777 2.606-35.438 2.998-11.816 8.2-23.282 15.69-33.81 1.02-1.442 2.081-2.843 3.162-4.214 33.368-42.176 94.313-51.231 138.632-19.697 45.761 32.554 56.475 96.033 23.921 141.794z" fill="#bed8fb"/><path d="m171.157 420.133c22.392 15.926 47.803 24.517 73.356 26.24-31.877 2.164-64.687-6.272-92.755-26.24-64.584-45.95-79.706-135.556-33.756-200.139 30.011-42.192 78.656-63.275 126.783-60.009-41.479 2.786-81.416 23.493-107.398 60.009-45.936 64.583-30.826 154.189 33.77 200.139z" fill="#eab14d"/><path d="m317.81 362.12c-22.249 31.281-58.934 46.183-94.543 42.088 27.64-3.188 53.88-17.623 71.27-42.088 32.564-45.755 21.848-109.238-23.908-141.789-14.474-10.302-30.724-16.276-47.207-18.167 24.063-2.76 49.189 3.019 70.467 18.167 45.768 32.551 56.472 96.034 23.921 141.789z" fill="#fff"/><path d="m504.303 494.775c-14.835 20.851-43.257 26.084-86.741-4.842-14.412-10.25-26.599-21.716-35.912-33.223-18.78-23.21-25.878-46.595-15.957-60.533 9.91-13.938 34.315-14.907 62.398-4.79 13.928 5.027 28.763 12.785 43.185 23.045 43.473 30.926 47.862 59.503 33.027 80.343z" fill="#c67d66"/><path d="m504.306 494.785c-14.831 20.849-43.264 26.076-86.743-4.852s-66.7-72.899-51.869-93.748c-5.904 8.3 24.555 40.097 68.033 71.025 43.479 30.928 64.675 35.875 70.579 27.575z" fill="#aa593d"/><path d="m428.091 391.386c-.103.175-.216.34-.34.505l-46.101 64.819c-18.78-23.21-25.878-46.595-15.957-60.533 9.91-13.939 34.315-14.907 62.398-4.791z" fill="#aa593d"/><path d="m370.005 348.105-48.314 67.919c-9.505 13.362-6.378 31.899 6.984 41.403 13.362 9.505 31.899 6.378 41.403-6.984l48.314-67.919c9.505-13.362 6.378-31.899-6.984-41.403-13.361-9.505-31.898-6.378-41.403 6.984z" fill="#c67d66"/><path d="m373.481 430.661c7.49-1.255 14.497-5.38 19.255-12.069l-22.658 31.853c-4.751 6.68-11.758 10.804-19.255 12.069s-15.469-.334-22.148-5.085c-13.359-9.503-16.486-28.044-6.984-41.403l22.658-31.853c-9.509 13.368-6.375 31.9 6.984 41.403 6.679 4.751 14.651 6.349 22.148 5.085z" fill="#aa593d"/><g fill="#617881"><path d="m290.891 259.039c0 10.498-8.51 19.007-19.017 19.007h-135.469c2.998-11.816 8.2-23.282 15.69-33.81 1.02-1.442 2.081-2.843 3.162-4.214h116.616c5.254 0 10.003 2.133 13.444 5.573 3.442 3.441 5.574 8.2 5.574 13.444z"/><path d="m290.891 332.491c0 10.508-8.51 19.017-19.017 19.017h-126.414c-6.377-11.837-10.312-24.786-11.662-38.024h138.075c5.254 0 10.003 2.122 13.444 5.563 3.442 3.441 5.574 8.2 5.574 13.444z"/></g><path d="m234.719 412.616c-22.529 0-44.456-6.959-63.186-20.282-23.814-16.939-39.606-42.139-44.467-70.956-4.86-28.817 1.792-57.803 18.732-81.616 16.94-23.814 42.139-39.606 70.956-44.467 28.819-4.861 57.802 1.791 81.617 18.731 49.159 34.969 60.704 103.413 25.734 152.572-16.94 23.814-42.139 39.606-70.956 44.466-6.152 1.039-12.314 1.552-18.43 1.552zm.433-203.415c-5.254 0-10.542.44-15.827 1.331-24.747 4.175-46.387 17.736-60.935 38.186-14.547 20.451-20.261 45.342-16.086 70.089 4.174 24.747 17.735 46.387 38.186 60.935 20.45 14.547 45.343 20.26 70.089 16.086 24.747-4.174 46.387-17.735 60.935-38.186 30.03-42.216 20.116-100.993-22.101-131.024-16.082-11.44-34.915-17.417-54.261-17.417z" fill="#eab14d"/></g></g></svg>